<svg width="80" height="59" viewBox="0 0 80 59" fill="none" xmlns="http://www.w3.org/2000/svg">
<path d="M0 8.00001C0 3.58173 3.58172 0 8 0H72C76.4183 0 80 3.58172 80 8V31.3043C80 35.7226 76.4183 39.3043 72 39.3043H8C3.58172 39.3043 0 35.7226 0 31.3043V8.00001Z" fill="#ECF4FF"/>
<rect x="5" y="5.04346" width="32.5" height="29.2174" rx="4" fill="#C2CAD4"/>
<rect x="5" y="11.0869" width="32.5" height="2.52174" fill="#A4ACB6"/>
<rect x="5" y="18.3911" width="32.5" height="2.52174" fill="#A4ACB6"/>
<rect x="5" y="25.6958" width="32.5" height="2.52174" fill="#A4ACB6"/>
<path opacity="0.5" d="M9 5.04346C7 5.04346 5 6.5 5 9V30.3864C5 32 6.5 34.2608 9 34.2608H11.25C9.86931 34.2608 8.75 32.9527 8.75 31.3391V7.9652C8.75 6.35157 9.86931 5.04346 11.25 5.04346H9Z" fill="black" fill-opacity="0.1"/>
<rect x="15.625" y="17.1304" width="12.5" height="5.04348" rx="2.52174" fill="#ECF4FF"/>
<rect x="42.5" y="5.04346" width="32.5" height="29.2174" rx="4" fill="#C2CAD4"/>
<rect x="42.5" y="11.0869" width="32.5" height="2.52174" fill="#A4ACB6"/>
<rect x="42.5" y="18.3911" width="32.5" height="2.52174" fill="#A4ACB6"/>
<rect x="42.5" y="25.6958" width="32.5" height="2.52174" fill="#A4ACB6"/>
<path opacity="0.5" d="M46.5 5.04346C44.5 5.04346 42.5 6.5 42.5 9V30.3864C42.5 32 44 34.2608 46.5 34.2608H48.75C47.3693 34.2608 46.25 32.9527 46.25 31.3391V7.9652C46.25 6.35157 47.3693 5.04346 48.75 5.04346H46.5Z" fill="black" fill-opacity="0.1"/>
<rect x="53.125" y="17.1304" width="12.5" height="5.04348" rx="2.52174" fill="#ECF4FF"/>
<path d="M35 44.3477C35.5265 50.1117 36 52.5 35.5 57.9998M22 49.1737H21.375C18.9588 49.1737 17 51.1495 17 53.5868C17 56.024 18.9588 57.9998 21.375 57.9998H22.3553C29.4643 57.9998 27.2424 49.1505 27 44.3477M44.2121 44.3477C43.6855 50.1117 43.212 52.5 43.7121 57.9998M57.212 49.1737H57.837C60.2533 49.1737 62.212 51.1495 62.212 53.5868C62.212 56.024 60.2533 57.9998 57.837 57.9998H56.8567C49.7477 57.9998 51.9696 49.1505 52.212 44.3477" stroke="#F23030" stroke-width="2" stroke-linecap="round"/>
</svg>
